<svg xmlns="http://www.w3.org/2000/svg" width="1600" height="420" viewBox="0 0 1600 420" fill="none">
  <defs>
    <linearGradient id="bg" x1="80" y1="40" x2="1520" y2="380" gradientUnits="userSpaceOnUse">
      <stop stop-color="#0F172A"/>
      <stop offset="0.48" stop-color="#123A63"/>
      <stop offset="1" stop-color="#0B6E99"/>
    </linearGradient>
    <linearGradient id="accent" x1="260" y1="78" x2="1340" y2="342" gradientUnits="userSpaceOnUse">
      <stop stop-color="#F59E0B"/>
      <stop offset="1" stop-color="#F97316"/>
    </linearGradient>
    <filter id="shadow" x="0" y="0" width="1600" height="420" filterUnits="userSpaceOnUse">
      <feDropShadow dx="0" dy="18" stdDeviation="24" flood-color="#020617" flood-opacity="0.28"/>
    </filter>
  </defs>
  <rect x="24" y="24" width="1552" height="372" rx="36" fill="url(#bg)" filter="url(#shadow)"/>
  <circle cx="1320" cy="92" r="110" fill="#FFFFFF" opacity="0.07"/>
  <circle cx="1410" cy="322" r="150" fill="#FFFFFF" opacity="0.05"/>
  <path d="M1180 286C1236 225 1275 196 1330 170C1366 153 1414 138 1500 124" stroke="url(#accent)" stroke-width="12" stroke-linecap="round" opacity="0.9"/>
  <path d="M1188 286L1248 250L1298 266L1364 216L1418 228L1498 126" stroke="#E2E8F0" stroke-width="5" stroke-linecap="round" stroke-linejoin="round" opacity="0.55"/>
  <g transform="translate(120,92)">
    <text x="0" y="0" fill="#E2E8F0" font-family="Arial, Helvetica, sans-serif" font-size="26" font-weight="700" letter-spacing="3">RAM DELAY INTELLIGENCE</text>
    <text x="0" y="96" fill="#FFFFFF" font-family="Arial, Helvetica, sans-serif" font-size="64" font-weight="700">Punctualité des vols</text>
    <text x="0" y="160" fill="#CBD5E1" font-family="Arial, Helvetica, sans-serif" font-size="26" font-weight="400">Analyse, visualisation et prédiction des retards avec Streamlit et Machine Learning</text>
    <g transform="translate(0,204)">
      <rect x="0" y="0" width="182" height="46" rx="23" fill="#FFFFFF" fill-opacity="0.12"/>
      <text x="91" y="30" text-anchor="middle" fill="#F8FAFC" font-family="Arial, Helvetica, sans-serif" font-size="20" font-weight="700">Streamlit</text>
      <rect x="202" y="0" width="170" height="46" rx="23" fill="#FFFFFF" fill-opacity="0.12"/>
      <text x="287" y="30" text-anchor="middle" fill="#F8FAFC" font-family="Arial, Helvetica, sans-serif" font-size="20" font-weight="700">BI + ML</text>
      <rect x="392" y="0" width="230" height="46" rx="23" fill="#FFFFFF" fill-opacity="0.12"/>
      <text x="507" y="30" text-anchor="middle" fill="#F8FAFC" font-family="Arial, Helvetica, sans-serif" font-size="20" font-weight="700">Royal Air Maroc</text>
    </g>
  </g>
</svg>